<?xml version="1.0" standalone="no"?>
<!DOCTYPE svg PUBLIC "-//W3C//DTD SVG 20010904//EN"
 "http://www.w3.org/TR/2001/REC-SVG-20010904/DTD/svg10.dtd">
<svg version="1.0" xmlns="http://www.w3.org/2000/svg"
 width="1200.000000pt" height="1200.000000pt" viewBox="0 0 1200.000000 1200.000000"
 preserveAspectRatio="xMidYMid meet">
<metadata>
Created by potrace 1.14, written by Peter Selinger 2001-2017
</metadata>
<g transform="translate(0.000000,1200.000000) scale(0.100000,-0.100000)"
fill="#000000" stroke="none">
<path d="M2220 6375 l0 -2595 -295 0 c-162 0 -295 -3 -294 -7 0 -5 116 -181
258 -393 l258 -385 -259 -388 c-143 -214 -258 -391 -255 -393 2 -2 1957 -3
4343 -2 l4340 3 -289 389 c-202 271 -287 393 -281 402 28 41 187 255 367 497
l207 277 -275 0 -275 0 0 2595 0 2595 -3775 0 -3775 0 0 -2595z m7220 1660 l0
-605 -3442 2 -3443 3 -3 603 -2 602 3445 0 3445 0 0 -605z m0 -2595 l0 -1660
-3445 0 -3445 0 0 1660 0 1660 3445 0 3445 0 0 -1660z m-3790 -1878 c43 -21
62 -39 86 -80 37 -60 44 -96 44 -214 l0 -88 -84 0 -84 0 -4 94 c-5 109 -20
142 -72 151 -38 8 -88 -13 -102 -42 -10 -22 -18 -647 -9 -722 5 -37 14 -61 30
-77 32 -32 85 -32 122 0 27 23 28 28 31 140 l4 116 84 0 84 0 0 -113 c0 -136
-16 -197 -65 -254 -91 -107 -314 -110 -404 -7 -67 76 -66 66 -66 524 l0 415
28 56 c63 129 233 174 377 101z m640 12 c45 -19 96 -68 123 -119 21 -39 22
-52 25 -439 4 -459 1 -474 -74 -551 -118 -122 -369 -91 -444 55 -36 71 -42
151 -37 516 4 374 6 392 57 462 65 90 230 126 350 76z m-3777 -1 c3 -5 22
-203 43 -442 27 -303 41 -423 46 -395 4 21 23 215 43 429 20 215 38 396 40
403 3 8 32 12 100 12 67 0 97 -4 100 -12 3 -7 23 -202 45 -432 22 -231 43
-422 45 -425 3 -2 5 2 5 10 0 53 73 818 81 837 8 20 15 22 78 22 38 0 72 -3
74 -7 4 -6 -100 -1071 -113 -1160 0 -2 -51 -3 -114 -3 l-115 0 -6 43 c-3 23
-19 173 -35 332 -32 311 -41 378 -46 373 -1 -2 -19 -154 -39 -338 -19 -184
-38 -352 -41 -372 l-6 -38 -121 0 -122 0 -58 573 c-32 314 -58 578 -58 585 1
13 166 18 174 5z m1211 -27 c107 -52 141 -140 134 -346 -3 -109 -7 -132 -29
-181 -15 -32 -41 -67 -60 -82 -45 -34 -129 -57 -206 -57 l-63 0 0 -235 0 -235
-95 0 -95 0 0 578 c0 318 3 582 8 586 4 5 84 6 178 4 163 -4 173 -5 228 -32z
m581 23 c72 -13 101 -28 143 -70 63 -65 67 -92 67 -504 0 -267 -3 -381 -12
-411 -20 -63 -65 -118 -120 -145 -44 -22 -62 -24 -235 -27 l-188 -4 0 580 c0
318 3 582 7 585 11 11 274 8 338 -4z m835 -74 l0 -85 -155 0 -155 0 0 -155 0
-155 125 0 125 0 0 -85 0 -85 -125 0 -125 0 0 -175 0 -175 155 0 155 0 0 -85
0 -85 -250 0 -250 0 0 578 c0 318 3 582 7 585 3 4 116 7 250 7 l243 0 0 -85z
m1610 -408 l5 -489 24 -19 c23 -19 74 -25 105 -13 39 15 41 35 46 529 l5 480
88 3 87 3 0 -479 c0 -524 -2 -540 -59 -619 -46 -63 -107 -88 -216 -88 -109 0
-170 25 -216 88 -57 79 -59 95 -59 619 l0 479 93 -3 92 -3 5 -488z m825 482
c72 -13 101 -28 143 -70 53 -54 67 -114 66 -274 -1 -147 -11 -194 -54 -255
-34 -48 -117 -81 -215 -88 l-85 -5 0 -233 0 -234 -95 0 -95 0 0 578 c0 318 3
582 7 585 11 11 264 8 328 -4z m497 -486 l3 -498 150 -5 150 -5 3 -82 3 -83
-246 0 -245 0 0 585 0 585 90 0 90 0 2 -497z m896 410 l3 -83 -161 0 -160 0 0
-155 0 -155 125 0 125 0 0 -85 0 -85 -125 0 -125 0 0 -175 0 -175 160 0 160 0
0 -85 0 -85 -250 0 -250 0 0 585 0 585 248 -2 247 -3 3 -82z m526 53 c67 -33
108 -88 126 -170 8 -34 11 -171 8 -416 -3 -360 -3 -366 -27 -412 -55 -113
-122 -138 -363 -138 l-168 0 0 578 c0 318 3 582 8 586 4 5 86 6 183 4 168 -4
178 -5 233 -32z"/>
<path d="M3009 8417 c-157 -54 -270 -197 -286 -361 -11 -125 39 -257 132 -345
164 -155 416 -155 580 0 93 88 143 220 132 345 -26 272 -299 449 -558 361z"/>
<path d="M4196 8429 c-63 -15 -153 -68 -202 -121 -140 -149 -153 -382 -30
-544 156 -206 451 -228 634 -47 162 160 169 419 15 584 -59 63 -103 92 -182
119 -64 21 -165 25 -235 9z"/>
<path d="M5330 8422 c-73 -24 -125 -59 -182 -119 -125 -134 -148 -320 -61
-485 143 -272 522 -301 709 -54 159 210 86 515 -152 633 -65 32 -84 36 -166
39 -71 3 -106 0 -148 -14z"/>
<path d="M4940 6290 c-448 -42 -824 -363 -926 -791 -9 -41 -21 -80 -27 -86 -7
-10 -95 -13 -377 -13 -364 0 -367 0 -400 -22 -50 -34 -72 -71 -78 -126 -5 -62
25 -122 78 -155 34 -21 45 -22 409 -27 l374 -5 23 -88 c50 -185 129 -330 258
-464 90 -96 179 -162 291 -218 185 -92 312 -115 630 -115 202 0 235 3 271 19
48 22 80 60 94 112 7 25 10 348 8 951 -3 1027 3 951 -80 1006 l-42 27 -210 2
c-116 0 -249 -3 -296 -7z m290 -1051 l0 -721 -172 4 c-158 4 -180 7 -257 33
-213 73 -385 250 -459 473 -22 67 -26 94 -26 212 0 125 3 142 31 222 43 123
85 190 183 288 67 67 103 94 170 128 128 64 207 81 383 81 l147 1 0 -721z"/>
<path d="M6535 6279 c-33 -19 -67 -53 -78 -79 -7 -14 -14 -97 -17 -185 l-5
-160 -225 -5 c-216 -5 -226 -6 -258 -28 -43 -31 -66 -77 -66 -132 0 -56 23
-101 71 -137 l36 -28 221 -5 221 -5 3 -281 2 -282 -35 -6 c-19 -4 -117 -6
-218 -5 -151 1 -189 -2 -214 -15 -94 -48 -116 -173 -47 -255 42 -50 99 -61
320 -61 l193 0 3 -164 c3 -182 8 -196 77 -243 45 -31 112 -36 364 -30 283 7
392 29 558 112 283 142 488 401 554 700 l17 74 371 3 c407 3 408 4 456 64 57
72 47 162 -25 231 l-44 43 -377 2 -377 3 -24 90 c-26 105 -105 273 -167 360
-102 144 -282 288 -439 354 -167 69 -200 74 -531 78 -213 2 -306 0 -320 -8z
m650 -352 c237 -78 408 -260 479 -509 24 -83 22 -287 -3 -378 -68 -243 -268
-436 -519 -501 -58 -15 -110 -19 -224 -19 l-148 0 0 721 0 721 168 -4 c147 -4
177 -8 247 -31z"/>
<path d="M6120 3418 c-48 -26 -50 -38 -50 -426 0 -371 2 -391 39 -419 22 -17
82 -16 108 2 38 27 43 75 43 415 0 323 -6 390 -32 417 -21 20 -79 26 -108 11z"/>
<path d="M3500 3231 l0 -181 60 0 c50 0 65 4 84 23 29 29 41 115 31 217 -10
97 -24 113 -109 118 l-66 4 0 -181z"/>
<path d="M4150 2996 l0 -416 59 0 c124 0 121 -12 121 419 l0 350 -24 27 c-20
24 -32 28 -90 32 l-66 4 0 -416z"/>
<path d="M7430 3231 l0 -181 60 0 c52 0 65 4 86 25 25 25 25 28 22 160 -4 162
-7 167 -103 173 l-65 4 0 -181z"/>
<path d="M9260 2995 l0 -415 65 0 c88 0 110 21 120 111 9 84 1 649 -9 672 -13
28 -61 47 -121 47 l-55 0 0 -415z"/>
</g>
</svg>
